<mxfile host="app.diagrams.net" modified="2023-04-11T15:22:39.604Z" agent="Mozilla/5.0 (Windows NT 10.0; Win64; x64) AppleWebKit/537.36 (KHTML, like Gecko) Chrome/112.0.0.0 Safari/537.36" version="21.1.5" etag="TIhF7D_Pyv7AIV_jlKPR" type="github">
  <diagram name="第 1 页" id="pPIb0hUqgVIb1NtMKmnw">
    <mxGraphModel>
      <root>
        <mxCell id="0" />
        <mxCell id="1" parent="0" />
      </root>
    </mxGraphModel>
  </diagram>
</mxfile>
